#!OML:ASF E:\emotionWalksFemale\Project 1\Capture day 1\Session 1\Female1.ASF
:FULLY-SPECIFIED
:DEGREES
844
root 8.30224 15.6505 3.14491 173.918 7.42339 -175.065
lowerback 4.15592 0.345589 -1.92337
upperback -6.35555 0.598399 0.206889
thorax -9.05615 0.548612 1.20688
lowerneck -17.1997 -1.5478 -5.16726
upperneck 24.9964 -2.3168 9.41029
head 11.1137 0.0352215 4.07396
rclavicle 2.14687e-014 -1.59028e-014
rhumerus 29.3764 24.6786 -48.5839
rradius 28.1913
rwrist 12.726
rhand 2.92468 -49.087
rfingers 7.12502
rthumb 28.3886 -76.9543
lclavicle 2.14687e-014 -1.59028e-014
lhumerus 27.2939 -17.6033 53.1029
lradius 28.3294
lwrist -24.6287
lhand -2.18698 -38.4659
lfingers 7.12502
lthumb 23.494 -9.88056
rfemur -14.6994 11.4267 16.3265
rtibia 29.1851
rfoot -18.2507 -25.8014
rtoes -12.2611
lfemur 10.1078 -24.6443 -28.8263
ltibia 20.4965
lfoot -27.1888 27.549
ltoes -2.34421
845
root 8.309 15.6463 3.06702 173.926 7.26708 -175.387
lowerback 4.14861 0.313305 -2.22787
upperback -6.34586 0.521789 0.111247
thorax -9.04129 0.528002 1.28555
lowerneck -17.3435 -1.58499 -5.25742
upperneck 25.1235 -2.36414 9.49826
head 11.1968 0.0232578 4.12376
rclavicle -3.18055e-015 4.53229e-014
rhumerus 29.3815 24.6528 -48.6006
rradius 28.1976
rwrist 12.6855
rhand 2.54276 -48.4396
rfingers 7.12502
rthumb 28.0235 -76.3671
lclavicle -3.18055e-015 4.53229e-014
lhumerus 27.4656 -16.996 53.594
lradius 27.9197
lwrist -25.3703
lhand -2.07658 -38.6446
lfingers 7.12502
lthumb 23.5999 -10.0728
rfemur -15.0374 12.2614 15.8331
rtibia 28.5782
rfoot -19.2991 -26.4177
rtoes -8.81019
lfemur 10.5223 -24.4736 -29.2619
ltibia 20.1064
lfoot -26.6802 27.6599
ltoes -4.66147
846
root 8.31465 15.6472 2.98941 174.065 7.134 -175.55
lowerback 3.91676 0.268694 -2.38468
upperback -6.32878 0.455348 0.070513
thorax -8.88382 0.504378 1.33972
lowerneck -17.3163 -1.60625 -5.29261
upperneck 25.0864 -2.39416 9.53547
head 11.1811 0.00922125 4.13753
rclavicle 7.15625e-015 -4.53229e-014
rhumerus 29.4044 24.4861 -48.7771
rradius 28.1774
rwrist 12.806
rhand 2.43184 -47.7157
rfingers 7.12502
rthumb 27.9175 -75.6605
lclavicle 7.15625e-015 -4.53229e-014
lhumerus 27.4825 -16.505 53.9089
lradius 27.8908
lwrist -25.9479
lhand -2.13412 -38.7269
lfingers 7.12502
lthumb 23.5447 -10.148
rfemur -15.554 13.2323 15.4575
rtibia 28.0433
rfoot -20.2956 -27.1556
rtoes -5.88565
lfemur 10.8552 -24.4489 -29.4962
ltibia 19.6787
lfoot -26.3512 27.63
ltoes -6.02368
847
root 8.32095 15.6463 2.91297 174.117 7.10328 -175.672
lowerback 4.01482 0.271433 -2.44941
upperback -6.43886 0.455569 0.0148807
thorax -9.06293 0.513863 1.31494
lowerneck -17.052 -1.5789 -5.29031
upperneck 25.0013 -2.36541 9.60246
head 11.0948 0.0293602 4.16032
rclavicle 8.54774e-015 -1.11319e-014
rhumerus 29.2095 24.3299 -49.2375
rradius 28.0554
rwrist 13.0969
rhand 2.74459 -47.7906
rfingers 7.12502
rthumb 28.2165 -75.6864
lclavicle 8.54774e-015 -1.11319e-014
lhumerus 27.4409 -18.2296 52.3342
lradius 28.5451
lwrist -23.9072
lhand -2.24347 -38.1952
lfingers 7.12502
lthumb 23.4399 -9.60294
rfemur -16.0055 14.1972 15.1658
rtibia 27.534
rfoot -20.6678 -28.0022
rtoes -5.10567
lfemur 11.2951 -24.2517 -29.67
ltibia 19.2385
lfoot -26.2839 27.4711
ltoes -6.13556
848
root 8.32864 15.6428 2.83614 174.117 7.03853 -175.836
lowerback 4.44044 0.2959 -2.57187
upperback -6.69339 0.476535 -0.0537258
thorax -9.59887 0.546307 1.3016
lowerneck -16.8266 -1.57794 -5.20883
upperneck 25.0986 -2.3616 9.55585
head 11.0847 0.041695 4.13277
rclavicle -5.56597e-015 8.74653e-015
rhumerus 28.7746 24.3892 -49.6046
rradius 27.9951
rwrist 13.3274
rhand 3.45489 -48.3965
rfingers 7.12502
rthumb 28.8951 -76.1782
lclavicle -5.56597e-015 8.74653e-015
lhumerus 27.0387 -17.5378 53.3199
lradius 28.4358
lwrist -25.1761
lhand -1.80234 -38.5263
lfingers 7.12502
lthumb 23.863 -9.9887
rfemur -16.3833 15.1937 14.8353
rtibia 27.0346
rfoot -21.0622 -28.9756
rtoes -4.47764
lfemur 11.7925 -23.984 -29.8818
ltibia 18.7675
lfoot -26.0062 27.4361
ltoes -7.5393
849
root 8.33697 15.6451 2.757 174.233 6.97043 -175.979
lowerback 4.0683 0.334751 -2.61813
upperback -6.57385 0.525128 -0.165244
thorax -9.24651 0.562061 1.20753
lowerneck -16.849 -1.63071 -5.07069
upperneck 24.9982 -2.46376 9.49826
head 11.0587 -0.00298296 4.068
rclavicle 1.98785e-016 4.6118e-014
rhumerus 28.8407 24.0215 -49.7792
rradius 27.8704
rwrist 13.5567
rhand 3.63776 -48.5262
rfingers 7.12502
rthumb 29.0698 -76.2779
lclavicle 1.98785e-016 4.6118e-014
lhumerus 27.4981 -16.6162 54.0504
lradius 27.8291
lwrist -26.4263
lhand -1.75942 -39.0112
lfingers 7.12502
lthumb 23.9041 -10.479
rfemur -16.9221 16.2781 14.4672
rtibia 26.5861
rfoot -21.6858 -30.1262
rtoes -4.09501
lfemur 12.2292 -23.9155 -30.095
ltibia 18.2673
lfoot -25.6399 27.5683
ltoes -9.39161
850
root 8.34562 15.6511 2.6807 174.393 6.90551 -176.121
lowerback 3.86625 0.362667 -2.64507
upperback -6.56979 0.564996 -0.25781
thorax -9.12281 0.58048 1.12138
lowerneck -16.8521 -1.7279 -4.99922
upperneck 25.0186 -2.5891 9.3627
head 11.0754 -0.0695395 3.98794
rclavicle 1.49089e-014 2.38542e-015
rhumerus 28.8268 23.9445 -49.7183
rradius 27.8724
rwrist 13.4766
rhand 3.03371 -48.6565
rfingers 7.12502
rthumb 28.4928 -76.5063
lclavicle 1.49089e-014 2.38542e-015
lhumerus 27.5801 -18.258 52.4718
lradius 28.5411
lwrist -24.5255
lhand -2.06049 -38.497
lfingers 7.12502
lthumb 23.6154 -9.92727
rfemur -17.5103 17.5318 14.0395
rtibia 26.1834
rfoot -22.5073 -31.2531
rtoes -3.03933
lfemur 12.5759 -23.8519 -30.2503
ltibia 17.7976
lfoot -25.4104 27.4775
ltoes -9.80387
851
root 8.35579 15.6529 2.60734 174.469 6.7739 -176.317
lowerback 3.8144 0.332123 -2.77783
upperback -6.57635 0.514115 -0.304262
thorax -9.0985 0.564157 1.15269
lowerneck -16.703 -1.72732 -5.09402
upperneck 24.8523 -2.57926 9.42347
head 10.9847 -0.0757856 4.01936
rclavicle -1.39149e-014 1.90833e-014
rhumerus 28.9028 24.2539 -49.3655
rradius 28.0193
rwrist 13.1087
rhand 2.79533 -48.9415
rfingers 7.12502
rthumb 28.265 -76.8293
lclavicle -1.39149e-014 1.90833e-014
lhumerus 27.5859 -17.9251 52.732
lradius 28.421
lwrist -24.986
lhand -2.18129 -38.6843
lfingers 7.12502
lthumb 23.4995 -10.0997
rfemur -17.915 18.6512 13.5846
rtibia 25.8172
rfoot -23.7068 -32.0196
rtoes -0.339752
lfemur 12.9041 -23.6584 -30.4007
ltibia 17.361
lfoot -25.3211 27.0218
ltoes -9.27568
852
root 8.36805 15.6516 2.53186 174.555 6.67527 -176.534
lowerback 3.7093 0.300219 -2.98415
upperback -6.53528 0.45577 -0.329621
thorax -8.99115 0.546858 1.24956
lowerneck -16.6061 -1.68329 -5.34141
upperneck 24.5547 -2.5389 9.77386
head 10.8592 -0.0513689 4.18398
rclavicle -6.75868e-015 1.59028e-015
rhumerus 29.1628 24.4186 -49.1585
rradius 27.9947
rwrist 13.052
rhand 3.18416 -48.7862
rfingers 7.12502
rthumb 28.6365 -76.6119
lclavicle -6.75868e-015 1.59028e-015
lhumerus 27.609 -16.9765 53.4279
lradius 28.0152
lwrist -25.9691
lhand -2.20446 -39.3368
lfingers 7.12502
lthumb 23.4773 -10.7492
rfemur -18.274 19.523 13.1325
rtibia 25.4361
rfoot -25.1576 -32.4109
rtoes 3.04101
lfemur 13.1869 -23.4145 -30.5699
ltibia 17.0093
lfoot -25.17 26.5332
ltoes -8.81055
853
root 8.37932 15.6508 2.45363 174.628 6.59248 -176.694
lowerback 3.63888 0.289878 -3.07501
upperback -6.48306 0.433486 -0.345741
thorax -8.89223 0.538362 1.28727
lowerneck -16.686 -1.70317 -5.53792
upperneck 24.4216 -2.56427 9.95834
head 10.8329 -0.0659836 4.27753
rclavicle 1.98785e-016 2.06736e-014
rhumerus 29.3534 24.2039 -49.3666
rradius 27.7664
rwrist 13.4198
rhand 3.42943 -47.7526
rfingers 7.12502
rthumb 28.8708 -75.5385
lclavicle 1.98785e-016 2.06736e-014
lhumerus 27.6256 -17.603 52.6453
lradius 28.417
lwrist -24.8849
lhand -2.02805 -39.1365
lfingers 7.12502
lthumb 23.6465 -10.5708
rfemur -18.5446 20.425 12.7362
rtibia 24.9872
rfoot -26.8098 -32.7155
rtoes 6.47253
lfemur 13.4636 -23.147 -30.7026
ltibia 16.8082
lfoot -24.7625 26.1986
ltoes -8.97482
854
root 8.3906 15.6543 2.37671 174.666 6.42047 -176.726
lowerback 3.6423 0.257067 -3.03603
upperback -6.46831 0.392242 -0.329188
thorax -8.87569 0.515222 1.28786
lowerneck -16.6152 -1.70421 -5.64287
upperneck 24.3443 -2.55673 10.041
head 10.792 -0.0660064 4.32336
rclavicle 5.36719e-015 2.78299e-014
rhumerus 29.3343 24.0076 -49.5868
rradius 27.6725
rwrist 13.7069
rhand 3.78367 -47.0212
rfingers 7.12502
rthumb 29.2091 -74.7488
lclavicle 5.36719e-015 2.78299e-014
lhumerus 27.6102 -17.9228 52.3115
lradius 28.6203
lwrist -24.4268
lhand -1.92214 -38.8414
lfingers 7.12502
lthumb 23.7481 -10.2888
rfemur -18.7742 21.4703 12.4749
rtibia 24.5029
rfoot -28.1431 -33.5647
rtoes 8.05451
lfemur 13.7057 -22.875 -30.6664
ltibia 16.6903
lfoot -24.3483 25.9374
ltoes -9.94629
855
root 8.40376 15.6543 2.30088 174.754 6.3324 -176.708
lowerback 3.57002 0.259773 -2.95081
upperback -6.45215 0.40556 -0.326445
thorax -8.81461 0.515057 1.24231
lowerneck -16.5262 -1.69404 -5.55437
upperneck 24.279 -2.55429 9.99958
head 10.7486 -0.0642309 4.28899
rclavicle -1.0138e-014 1.19271e-014
rhumerus 29.3612 24.0306 -49.4392
rradius 27.7389
rwrist 13.6613
rhand 4.45715 -47.1564
rfingers 7.12502
rthumb 29.8521 -74.7704
lclavicle -1.0138e-014 1.19271e-014
lhumerus 27.7289 -17.2715 52.9021
lradius 28.2271
lwrist -25.3807
lhand -1.85337 -39.1533
lfingers 7.12502
lthumb 23.814 -10.6093
rfemur -19.2435 22.7966 12.1786
rtibia 24.0408
rfoot -28.4325 -35.2206
rtoes 7.34902
lfemur 13.9321 -22.5904 -30.5753
ltibia 16.5749
lfoot -24.1676 25.6575
ltoes -10.8131
856
root 8.41566 15.648 2.22331 174.834 6.25847 -176.801
lowerback 3.49939 0.281935 -2.90062
upperback -6.42425 0.437913 -0.378471
thorax -8.74251 0.524079 1.15652
lowerneck -16.609 -1.73336 -5.38317
upperneck 24.3822 -2.60438 9.78318
head 10.8025 -0.0933396 4.17716
rclavicle -1.31198e-014 2.62396e-014
rhumerus 29.3603 24.0379 -49.3669
rradius 27.7787
rwrist 13.5904
rhand 4.69509 -47.3703
rfingers 7.12502
rthumb 30.0791 -74.9432
lclavicle -1.31198e-014 2.62396e-014
lhumerus 27.7884 -17.6127 52.5231
lradius 28.4081
lwrist -25.0109
lhand -1.78102 -38.9617
lfingers 7.12502
lthumb 23.8834 -10.4267
rfemur -19.718 23.8172 11.7903
rtibia 23.6525
rfoot -28.1226 -36.7757
rtoes 6.20953
lfemur 14.2262 -22.2419 -30.6273
ltibia 16.406
lfoot -23.8846 25.3192
ltoes -11.8698
